<svg width="23" height="22" viewBox="0 0 23 22" fill="none" xmlns="http://www.w3.org/2000/svg">
<path d="M20.6311 8.41256C20.5734 8.24274 20.4673 8.09353 20.3258 7.98335C20.1843 7.87316 20.0137 7.80681 19.8349 7.79251L14.6057 7.377L12.3429 2.36798C12.2709 2.20665 12.1536 2.06963 12.0054 1.97344C11.8572 1.87726 11.6843 1.82602 11.5076 1.82593C11.3309 1.82583 11.158 1.87687 11.0097 1.9729C10.8613 2.06892 10.744 2.20582 10.6717 2.36707L8.40891 7.377L3.17976 7.79251C3.00407 7.80642 2.8361 7.87066 2.69597 7.97754C2.55583 8.08442 2.44945 8.2294 2.38955 8.39516C2.32966 8.56091 2.31878 8.74041 2.35823 8.91218C2.39768 9.08395 2.48578 9.24072 2.61199 9.36373L6.4763 13.1308L5.10962 19.0488C5.06812 19.2279 5.08142 19.4154 5.14779 19.5869C5.21417 19.7584 5.33055 19.9059 5.48183 20.0105C5.63312 20.115 5.81233 20.1716 5.9962 20.173C6.18008 20.1744 6.36013 20.1205 6.51299 20.0183L11.5073 16.6888L16.5017 20.0183C16.6579 20.1221 16.8422 20.1755 17.0297 20.1713C17.2171 20.1672 17.3989 20.1058 17.5504 19.9953C17.702 19.8848 17.816 19.7306 17.8773 19.5533C17.9386 19.3761 17.9441 19.1843 17.8931 19.0039L16.2155 13.1336L20.3761 9.38941C20.6485 9.14359 20.7485 8.76019 20.6311 8.41256Z" fill="#F3CD03"/>
</svg>
